<svg width="16" height="12" viewBox="0 0 16 12" fill="none" xmlns="http://www.w3.org/2000/svg">
<path d="M15.5294 0.409577C15.819 0.682827 15.9881 1.05968 15.9994 1.45728C16.0107 1.85487 15.8632 2.24066 15.5895 2.52982L7.06932 11.5309C6.93124 11.6765 6.7653 11.793 6.58131 11.8736C6.39732 11.9541 6.19902 11.9971 5.99812 11.9999C5.79722 12.0027 5.59779 11.9652 5.41163 11.8898C5.22546 11.8144 5.05633 11.7026 4.91422 11.5609L0.403539 7.06034C0.13795 6.77596 -0.00663846 6.39983 0.000234249 6.01118C0.00710696 5.62253 0.164905 5.25172 0.440383 4.97686C0.715861 4.702 1.08751 4.54456 1.47704 4.5377C1.86656 4.53085 2.24355 4.67511 2.52857 4.9401L5.94667 8.34849L13.4043 0.469584C13.6782 0.180545 14.0559 0.0118539 14.4544 0.000601156C14.8529 -0.0106516 15.2395 0.136455 15.5294 0.409577Z" fill="black"/>
</svg>
