<svg width="52" height="52" viewBox="0 0 52 52" fill="none" xmlns="http://www.w3.org/2000/svg">
<circle cx="26" cy="26" r="25.5" stroke="white"/>
<path d="M26.3272 31.8977C28.6526 31.8977 30.5377 30.0126 30.5377 27.6872C30.5377 25.3618 28.6526 23.4767 26.3272 23.4767C24.0018 23.4767 22.1167 25.3618 22.1167 27.6872C22.1167 30.0126 24.0018 31.8977 26.3272 31.8977Z" fill="white"/>
<path d="M22.3801 14.5294L19.9723 17.161H15.8012C14.3539 17.161 13.1697 18.3452 13.1697 19.7926V35.5819C13.1697 37.0293 14.3539 38.2135 15.8012 38.2135H36.8537C38.3011 38.2135 39.4853 37.0293 39.4853 35.5819V19.7926C39.4853 18.3452 38.3011 17.161 36.8537 17.161H32.6827L30.2748 14.5294H22.3801ZM26.3275 34.2661C22.6959 34.2661 19.7486 31.3188 19.7486 27.6872C19.7486 24.0557 22.6959 21.1083 26.3275 21.1083C29.959 21.1083 32.9064 24.0557 32.9064 27.6872C32.9064 31.3188 29.959 34.2661 26.3275 34.2661Z" fill="white"/>
</svg>
