<svg width="29" height="29" viewBox="0 0 29 29" fill="none" xmlns="http://www.w3.org/2000/svg">
<path d="M2 20.75L9.16529 13.5847C10.3857 12.3643 12.3643 12.3643 13.5847 13.5847L20.75 20.75M17.625 17.625L20.1028 15.1472C21.3232 13.9268 23.3018 13.9268 24.5222 15.1472L27 17.625M17.625 8.25H17.6406M5.125 27H23.875C25.6009 27 27 25.6009 27 23.875V5.125C27 3.39911 25.6009 2 23.875 2L5.125 2C3.39911 2 2 3.39911 2 5.125L2 23.875C2 25.6009 3.39911 27 5.125 27Z" stroke="white" stroke-width="2.34377" stroke-linecap="round" stroke-linejoin="round"/>
</svg>
