<svg width="304" height="304" viewBox="0 0 304 304" fill="none" xmlns="http://www.w3.org/2000/svg">
<rect width="304" height="304" rx="16" fill="#4D739B"/>
<circle cx="152" cy="152" r="73.9998" stroke="white" stroke-width="6"/>
<path d="M151.999 168.366C158.886 168.366 164.469 162.783 164.469 155.897C164.469 149.01 158.886 143.427 151.999 143.427C145.113 143.427 139.53 149.01 139.53 155.897C139.53 162.783 145.113 168.366 151.999 168.366Z" fill="white"/>
<path d="M140.31 116.929L133.179 124.723H120.826C116.54 124.723 113.033 128.23 113.033 132.516V179.277C113.033 183.563 116.54 187.07 120.826 187.07H183.174C187.46 187.07 190.967 183.563 190.967 179.277V132.516C190.967 128.23 187.46 124.723 183.174 124.723H170.821L163.69 116.929H140.31ZM152 175.38C141.245 175.38 132.516 166.651 132.516 155.896C132.516 145.141 141.245 136.413 152 136.413C162.755 136.413 171.484 145.141 171.484 155.896C171.484 166.651 162.755 175.38 152 175.38Z" fill="white"/>
</svg>
