<svg width="26" height="26" viewBox="0 0 26 26" fill="none" xmlns="http://www.w3.org/2000/svg">
<path d="M13 0C5.8318 0 0 5.8318 0 13C0 20.1682 5.8318 26 13 26C20.1682 26 26 20.1682 26 13C26 5.8318 20.1682 0 13 0ZM14.3 19.3895V20.8H11.7V19.396C8.6593 18.9189 7.8 16.7934 7.8 15.6H10.4C10.4143 15.7859 10.6067 16.9 13 16.9C14.794 16.9 15.6 16.1395 15.6 15.6C15.6 15.1788 15.6 14.3 13 14.3C8.476 14.3 7.8 11.856 7.8 10.4C7.8 8.7256 9.1377 7.0408 11.7 6.6105V5.2156H14.3V6.6573C16.5542 7.1903 17.42 9.0662 17.42 10.4H16.12L14.82 10.4234C14.8018 9.9294 14.5405 9.1 13 9.1C11.3113 9.1 10.4 9.7708 10.4 10.4C10.4 10.8862 10.4 11.7 13 11.7C17.524 11.7 18.2 14.144 18.2 15.6C18.2 17.2744 16.8623 18.9592 14.3 19.3895Z" fill="white"/>
</svg>
