<svg width="24" height="26" viewBox="0 0 24 26" fill="none" xmlns="http://www.w3.org/2000/svg">
<path d="M20.1594 9.94655C19.1564 9.94651 18.1707 9.6842 17.3003 9.18566C16.4298 8.68711 15.7049 7.96965 15.1973 7.10445H5.7569V5.72181C5.7569 5.51808 5.83783 5.32271 5.98189 5.17865C6.12594 5.0346 6.32132 4.95367 6.52504 4.95367H9.16743V4.43134C9.16743 3.95972 9.35478 3.50742 9.68826 3.17394C10.0217 2.84045 10.474 2.6531 10.9457 2.6531C11.4173 2.6531 11.8696 2.84045 12.2031 3.17394C12.5365 3.50742 12.7239 3.95972 12.7239 4.43134V4.95367H14.4599C14.4249 4.6991 14.407 4.44249 14.4061 4.18553C14.4077 3.91558 14.4283 3.64608 14.4676 3.37899H14.0835C13.8624 2.72191 13.4407 2.15081 12.8777 1.74624C12.3147 1.34166 11.6389 1.12402 10.9457 1.12402C10.2524 1.12402 9.57661 1.34166 9.01364 1.74624C8.45066 2.15081 8.02889 2.72191 7.80783 3.37899H2.49233C2.30421 3.35178 2.11247 3.36478 1.92974 3.41712C1.74702 3.46946 1.57748 3.55995 1.4323 3.68263C1.28712 3.80531 1.1696 3.95738 1.08751 4.12881C1.00542 4.30024 0.960614 4.48712 0.956055 4.67714V24.3568C0.95706 24.5283 0.991834 24.6979 1.05839 24.8559C1.12494 25.014 1.22198 25.1574 1.34395 25.2779C1.46592 25.3984 1.61044 25.4938 1.76926 25.5585C1.92808 25.6232 2.09808 25.6559 2.26957 25.6549H19.6141C19.7856 25.6559 19.9556 25.6232 20.1144 25.5585C20.2732 25.4938 20.4177 25.3984 20.5397 25.2779C20.6617 25.1574 20.7587 25.014 20.8253 24.8559C20.8918 24.6979 20.9266 24.5283 20.9276 24.3568V9.89278C20.673 9.92777 20.4164 9.94573 20.1594 9.94655ZM16.9102 12.7963L9.90484 19.8017L5.87981 15.7767C5.67608 15.573 5.56163 15.2967 5.56163 15.0086C5.56163 14.7205 5.67608 14.4442 5.87981 14.2404C6.08353 14.0367 6.35983 13.9223 6.64794 13.9223C6.93605 13.9223 7.21235 14.0367 7.41608 14.2404L9.9202 16.7446L15.4047 11.2601C15.5056 11.1592 15.6253 11.0792 15.7571 11.0246C15.8889 10.97 16.0302 10.9419 16.1728 10.9419C16.3155 10.9419 16.4567 10.97 16.5885 11.0246C16.7203 11.0792 16.8401 11.1592 16.941 11.2601C17.0418 11.3609 17.1219 11.4807 17.1764 11.6125C17.231 11.7443 17.2591 11.8855 17.2591 12.0282C17.2591 12.1709 17.231 12.3121 17.1764 12.4439C17.1219 12.5757 17.0418 12.6955 16.941 12.7963H16.9102Z" fill="white"/>
<path d="M20.1595 8.02609C22.2807 8.02609 24.0002 6.30655 24.0002 4.18541C24.0002 2.06426 22.2807 0.344727 20.1595 0.344727C18.0384 0.344727 16.3188 2.06426 16.3188 4.18541C16.3188 6.30655 18.0384 8.02609 20.1595 8.02609Z" fill="white"/>
</svg>
