<svg width="20" height="23" viewBox="0 0 20 23" fill="none" xmlns="http://www.w3.org/2000/svg">
<path d="M14.4444 13.8C15.9179 13.8 17.3309 14.4058 18.3728 15.4841C19.4147 16.5625 20 18.025 20 19.55V20.7C20 21.31 19.7659 21.895 19.3491 22.3263C18.9324 22.7577 18.3671 23 17.7778 23H2.22222C1.63285 23 1.06762 22.7577 0.650874 22.3263C0.234126 21.895 0 21.31 0 20.7V19.55C0 18.025 0.585316 16.5625 1.62718 15.4841C2.66905 14.4058 4.08213 13.8 5.55556 13.8H14.4444ZM10 0C11.4734 0 12.8865 0.605802 13.9284 1.68414C14.9702 2.76247 15.5556 4.22501 15.5556 5.75C15.5556 7.27499 14.9702 8.73753 13.9284 9.81586C12.8865 10.8942 11.4734 11.5 10 11.5C8.52658 11.5 7.1135 10.8942 6.07163 9.81586C5.02976 8.73753 4.44444 7.27499 4.44444 5.75C4.44444 4.22501 5.02976 2.76247 6.07163 1.68414C7.1135 0.605802 8.52658 0 10 0Z" fill="white"/>
</svg>
