<svg width="25" height="25" viewBox="0 0 25 25" fill="none" xmlns="http://www.w3.org/2000/svg">
<path d="M13.8475 2.2814e-06C14.215 2.2814e-06 14.5437 0.228749 14.6675 0.571245L15.5499 3.01747C15.8662 3.09622 16.1374 3.17496 16.3674 3.25746C16.6186 3.34746 16.9424 3.48371 17.3424 3.66996L19.3973 2.58247C19.565 2.49361 19.757 2.46153 19.9446 2.49105C20.1321 2.52058 20.3049 2.61011 20.4373 2.74622L22.2447 4.61495C22.4847 4.86369 22.5522 5.22744 22.4172 5.54494L21.4535 7.80366C21.6135 8.0974 21.741 8.34865 21.8385 8.55865C21.9435 8.7874 22.0735 9.10239 22.2284 9.50864L24.4746 10.4711C24.8121 10.6149 25.0208 10.9524 24.9983 11.3136L24.8334 13.9073C24.8221 14.0758 24.7616 14.2373 24.6594 14.3718C24.5572 14.5062 24.4177 14.6077 24.2584 14.6636L22.1309 15.4198C22.0697 15.7136 22.006 15.9648 21.9385 16.1773C21.8296 16.5055 21.7053 16.8283 21.566 17.1448L22.6347 19.5073C22.7101 19.6733 22.7304 19.859 22.6926 20.0374C22.6548 20.2158 22.5609 20.3774 22.4247 20.4985L20.3923 22.3135C20.2584 22.4325 20.0914 22.5078 19.9136 22.5292C19.7357 22.5507 19.5556 22.5173 19.3973 22.4335L17.3024 21.3235C16.9746 21.497 16.6365 21.6502 16.2899 21.7822L15.3749 22.1247L14.5625 24.3747C14.5023 24.5395 14.3936 24.6822 14.2509 24.7841C14.1081 24.8861 13.9379 24.9425 13.7625 24.946L11.3876 24.9997C11.2075 25.0044 11.0304 24.9532 10.8807 24.8532C10.7309 24.7531 10.6159 24.6091 10.5513 24.441L9.59388 21.9072C9.2672 21.7956 8.94375 21.6747 8.62391 21.5447C8.36232 21.4315 8.10467 21.3094 7.85144 21.1785L5.47652 22.1935C5.32003 22.2602 5.14752 22.2801 4.97996 22.2506C4.81241 22.221 4.65706 22.1435 4.5328 22.0272L2.77536 20.3785C2.64452 20.2563 2.55541 20.096 2.52064 19.9204C2.48587 19.7447 2.50721 19.5626 2.58162 19.3998L3.60283 17.1748C3.46702 16.9113 3.3411 16.6427 3.22535 16.3698C3.09023 16.0357 2.96518 15.6977 2.85036 15.3561L0.612938 14.6748C0.43107 14.6199 0.272443 14.5064 0.161691 14.352C0.050939 14.1976 -0.00573893 14.011 0.000459321 13.8211L0.0879563 11.4199C0.0941843 11.2632 0.143125 11.1112 0.229486 10.9803C0.315847 10.8495 0.436342 10.7447 0.577939 10.6774L2.92536 9.54989C3.0341 9.15114 3.1291 8.84115 3.21285 8.6149C3.33077 8.31271 3.46172 8.01577 3.60533 7.72491L2.58787 5.57493C2.51065 5.41166 2.48721 5.22811 2.5209 5.05067C2.55459 4.87323 2.64368 4.71105 2.77536 4.58745L4.5303 2.92997C4.65333 2.81393 4.80726 2.73592 4.97357 2.70532C5.13989 2.67472 5.3115 2.69283 5.46777 2.75747L7.84019 3.73746C8.10268 3.56246 8.34017 3.42121 8.55516 3.30746C8.81141 3.17121 9.15389 3.02872 9.58513 2.87497L10.4101 0.573745C10.4711 0.405333 10.5826 0.259851 10.7293 0.157164C10.8761 0.0544777 11.051 -0.000407808 11.2301 2.2814e-06H13.8475ZM12.53 8.77365C10.4463 8.77365 8.75766 10.4424 8.75766 12.5024C8.75766 14.5623 10.4463 16.2323 12.53 16.2323C14.6125 16.2323 16.3011 14.5623 16.3011 12.5024C16.3011 10.4424 14.6137 8.77365 12.53 8.77365Z" fill="white"/>
</svg>
